<?xml version="1.0" encoding="UTF-8" standalone="no"?>
<svg
   id="Layer_6"
   data-name="Layer 6"
   version="1.1"
   viewBox="0 0 404.32 404.32"
   sodipodi:docname="refresh-icon.svg"
   inkscape:version="1.2.2 (732a01da63, 2022-12-09)"
   xmlns:inkscape="http://www.inkscape.org/namespaces/inkscape"
   xmlns:sodipodi="http://sodipodi.sourceforge.net/DTD/sodipodi-0.dtd"
   xmlns="http://www.w3.org/2000/svg"
   xmlns:svg="http://www.w3.org/2000/svg">
  <sodipodi:namedview
     id="namedview11"
     pagecolor="#ffffff"
     bordercolor="#666666"
     borderopacity="1.0"
     inkscape:showpageshadow="2"
     inkscape:pageopacity="0.0"
     inkscape:pagecheckerboard="0"
     inkscape:deskcolor="#d1d1d1"
     showgrid="false"
     inkscape:zoom="0.58369607"
     inkscape:cx="204.72983"
     inkscape:cy="202.16"
     inkscape:window-width="2100"
     inkscape:window-height="1224"
     inkscape:window-x="2391"
     inkscape:window-y="-9"
     inkscape:window-maximized="1"
     inkscape:current-layer="Layer_6" />
  <defs
     id="defs122">
    <clipPath
       id="a">
      <path
         id="path505"
         d="M13 11a3 3 0 1 0-3 3 3 3 0 0 0 3-3zm-3 5a5 5 0 1 1 5-5 5 5 0 0 1-5 5zM6.42 2.56l-.67.64a2 2 0 0 1-1.38.56H2a1.89 1.89 0 0 0-2 1.75v10.54a1.89 1.89 0 0 0 2 1.76h16a1.89 1.89 0 0 0 2-1.76V5.51a1.89 1.89 0 0 0-2-1.76h-2.37a2 2 0 0 1-1.38-.56l-.67-.64A2 2 0 0 0 12.2 2H7.8a2 2 0 0 0-1.38.56Z"
         clip-rule="evenodd" />
    </clipPath>
    <style
       id="style120">.cls-2{stroke:#fff;stroke-miterlimit:10;fill:#fff;stroke-width:4px}</style>
  </defs>
  <g
     id="g321"
     transform="translate(579.06848,87.374237)">
    <circle
       id="Circle2"
       cx="-376.90848"
       cy="114.78577"
       r="194.66"
       style="fill:none;stroke:#ffffff;stroke-width:15px;stroke-miterlimit:10" />
    <g
       id="g242"
       transform="matrix(0.44766051,0,0,0.44766051,-486.51771,5.1764711)"
       style="fill:#ffffff">
	<g
   id="g240"
   style="fill:#ffffff">
		<path
   d="m 468.999,227.774 c -11.4,0 -20.8,8.3 -20.8,19.8 -1,74.9 -44.2,142.6 -110.3,178.9 -99.6,54.7 -216,5.6 -260.6,-61 l 62.9,13.1 c 10.4,2.1 21.8,-4.2 23.9,-15.6 2.1,-10.4 -4.2,-21.8 -15.6,-23.9 l -123.7,-26 c -7.2,-1.7 -26.1,3.5 -23.9,22.9 l 15.6,124.8 c 1,10.4 9.4,17.7 19.8,17.7 15.5,0 21.8,-11.4 20.8,-22.9 l -7.3,-60.9 c 101.1,121.3 229.4,104.4 306.8,69.3 80.1,-42.7 131.1,-124.8 132.1,-215.4 0.1,-11.4 -8.3,-20.8 -19.7,-20.8 z"
   id="path236"
   style="fill:#ffffff" />

		<path
   d="m 20.599,261.874 c 11.4,0 20.8,-8.3 20.8,-19.8 1,-74.9 44.2,-142.6 110.3,-178.9 99.6,-54.7 216,-5.6 260.6,61 l -62.9,-13.1 c -10.4,-2.1 -21.8,4.2 -23.9,15.6 -2.1,10.4 4.2,21.8 15.6,23.9 l 123.8,26 c 7.2,1.7 26.1,-3.5 23.9,-22.9 l -15.6,-124.8 c -1,-10.4 -9.4,-17.7 -19.8,-17.7 -15.5,0 -21.8,11.4 -20.8,22.9 l 7.2,60.9 c -101.1,-121.2 -229.4,-104.4 -306.8,-69.2 -80.1,42.6 -131.1,124.8 -132.2,215.3 0,11.5 8.4,20.8 19.8,20.8 z"
   id="path238"
   style="fill:#ffffff" />

	</g>

</g>
  </g>
</svg>
